<?xml version="1.0" encoding="UTF-8"?>
<svg xmlns="http://www.w3.org/2000/svg" xmlns:xlink="http://www.w3.org/1999/xlink" width="60pt" height="46pt" viewBox="0 0 60 46" version="1.1">
<defs>
<radialGradient id="radial0" gradientUnits="userSpaceOnUse" cx="283.312" cy="213.5479" fx="283.312" fy="213.5479" r="250.8662" gradientTransform="matrix(0.106395,0,0,0.107338,0,0.000000000000004652)">
<stop offset="0.0849" style="stop-color:rgb(30.588235%,61.568627%,85.490196%);stop-opacity:1;"/>
<stop offset="0.2307" style="stop-color:rgb(29.411765%,60.392157%,83.529412%);stop-opacity:1;"/>
<stop offset="0.3998" style="stop-color:rgb(26.666667%,56.470588%,78.039216%);stop-opacity:1;"/>
<stop offset="0.5806" style="stop-color:rgb(21.568627%,50.196078%,69.019608%);stop-opacity:1;"/>
<stop offset="0.7695" style="stop-color:rgb(14.901961%,41.568627%,56.078431%);stop-opacity:1;"/>
<stop offset="0.963" style="stop-color:rgb(6.27451%,30.588235%,40%);stop-opacity:1;"/>
<stop offset="1" style="stop-color:rgb(4.313725%,28.235294%,36.470588%);stop-opacity:1;"/>
</radialGradient>
</defs>
<g id="surface1">
<path style=" stroke:none;fill-rule:nonzero;fill:url(#radial0);" d="M 29.773438 30.191406 L 29.773438 45.84375 M 29.773438 45.84375 L 34.652344 45.84375 L 34.753906 31.757812 L 40.96875 25.738281 L 54.539062 45.84375 L 60.285156 45.84375 L 60.285156 43.800781 L 44.550781 22.917969 L 60.285156 7.570312 L 53.605469 7.570312 L 29.773438 30.246094 M 8.621094 7.082031 L 0 7.082031 L 0 45.84375 L 4.820312 45.84375 L 4.820312 31.019531 C 4.820312 31.019531 13.105469 31.023438 17.765625 31 C 19.375 30.992188 21.019531 30.363281 21.746094 30.011719 C 23.796875 29.011719 27.269531 26.378906 27.269531 26.378906 L 23.449219 22.507812 C 23.449219 22.507812 19.28125 25.097656 17.886719 25.132812 C 16.457031 25.167969 4.820312 25.113281 4.820312 25.113281 L 4.820312 12.433594 L 13.917969 12.433594 Z M 30.910156 23.328125 L 51.257812 2.878906 L 49.113281 0 L 30.910156 17.53125 L 12.808594 0 L 9.914062 2.863281 Z M 30.910156 23.328125 "/>
</g>
</svg>
